<svg xmlns="http://www.w3.org/2000/svg" width="256" height="256" viewBox="0 0 256 256"><path d="M60.1 207.2l-1.9-7.8c1.8-.5 45.4-11.7 59.7-55.1a81.1 81.1 0 0 0 3-12.3H1v67a56 56 0 0 0 56 56h67V150.9c-16.9 44.2-62 55.9-63.9 56.3zm-7.7-100.5C41.9 93 40.3 76.1 43.5 65.3c1-3.5 5.2-15.2 16.9-20.7 15.7-7.4 36.6 0 50.8 17.9A97.6 97.6 0 0 1 124 86.9V1H57A56 56 0 0 0 1 57v67h74.3a57.4 57.4 0 0 1-22.9-17.3z"/><path d="M73.4 49.8a22.4 22.4 0 0 0-9.6 2.1c-8.6 4-11.8 13-12.6 15.7-1.8 6.1-2.5 21.2 7.6 34.2S89 123.2 115.7 124h6.1c1.8-30.7-14.6-53.6-16.9-56.6C96 56.3 84 49.8 73.4 49.8zm62.8 82.2H132v5.5c.5 2.2 1.2 4.5 1.9 6.8 14.3 43.4 57.8 54.6 59.7 55.1l-1.9 7.8c-1.8-.5-40.5-10.5-59.7-46.9V255h67a56 56 0 0 0 56-56v-67zm56.8-30.2c10.1-13.1 9.4-28.1 7.6-34.2-.8-2.7-4-11.7-12.6-15.7-12.2-5.7-29.5.8-41.1 15.6a91.8 91.8 0 0 0-14.8 33V124h4.2c26.5-.8 46-8.4 56.7-22.2z"/><path d="M199 1h-67v75.8a89.4 89.4 0 0 1 8.5-14.3c14.2-18 35.1-25.4 50.9-18 11.6 5.5 15.9 17.2 16.9 20.7 3.2 10.8 1.6 27.7-8.9 41.4-4.6 6-11.8 12.4-23 17.3H255V57a56 56 0 0 0-56-56z"/></svg>