<svg id="btn-subtle-arrow" xmlns="http://www.w3.org/2000/svg" width="254" height="254" viewBox="0 0 254 254"><title>instagram</title><path d="M127,22.9c33.9,0,37.9.1,51.3.7s19.1,2.6,23.6,4.4a39.3,39.3,0,0,1,14.6,9.5A39.3,39.3,0,0,1,226,52.1c1.7,4.5,3.8,11.2,4.4,23.6s.7,17.4.7,51.3-.1,37.9-.7,51.3-2.6,19.1-4.4,23.6A42.1,42.1,0,0,1,201.9,226c-4.5,1.7-11.2,3.8-23.6,4.4s-17.4.7-51.3.7-37.9-.1-51.3-.7-19.1-2.6-23.6-4.4a39.3,39.3,0,0,1-14.6-9.5A39.3,39.3,0,0,1,28,201.9c-1.7-4.5-3.8-11.2-4.4-23.6s-.7-17.4-.7-51.3.1-37.9.7-51.3S26.3,56.6,28,52.1a39.3,39.3,0,0,1,9.5-14.6A39.3,39.3,0,0,1,52.1,28c4.5-1.7,11.2-3.8,23.6-4.4s17.4-.7,51.3-.7M127,0C92.5,0,88.2.1,74.6.8S51.9,3.5,43.8,6.7A62.3,62.3,0,0,0,21.3,21.3,62.3,62.3,0,0,0,6.7,43.8C3.5,51.9,1.4,61.1.8,74.6S0,92.5,0,127s.1,38.8.8,52.4,2.8,22.7,5.9,30.8a62.3,62.3,0,0,0,14.6,22.5,62.3,62.3,0,0,0,22.5,14.6c8.1,3.1,17.3,5.3,30.8,5.9s17.9.8,52.4.8,38.8-.1,52.4-.8,22.7-2.8,30.8-5.9a64.9,64.9,0,0,0,37.1-37.1c3.1-8.1,5.3-17.3,5.9-30.8s.8-17.9.8-52.4-.1-38.8-.8-52.4-2.8-22.7-5.9-30.8a62.3,62.3,0,0,0-14.6-22.5A62.3,62.3,0,0,0,210.2,6.7c-8.1-3.1-17.3-5.3-30.8-5.9S161.5,0,127,0Z"/><path d="M127,61.8A65.2,65.2,0,1,0,192.2,127,65.2,65.2,0,0,0,127,61.8Zm0,107.5A42.3,42.3,0,1,1,169.3,127,42.3,42.3,0,0,1,127,169.3Z"/><circle cx="194.8" cy="59.2" r="15.2"/></svg>