<svg xmlns="http://www.w3.org/2000/svg" id="btn-subtle-arrow" width="256" height="256" viewBox="0 0 256 256"><path fill="#ffecb3" d="M218.3 143.7H241v1h-22.7z"/><path d="M196.9 96.1a8 8 0 0 1 1.9-2.8c2.5-2.4 8.6-6.1 20.7-4.1 17.2 2.8 30.3-8.8 34.5-20.7s-5.1-15-6.3-15.5h-.3A33.1 33.1 0 0 1 217 39.6c-12.4-16.5-29.8-14.5-29.8-14.5C184.9 10.4 174 1 174 1c-14 14.8-12 36.4-12 36.4a82 82 0 0 0-7.8 14.2c-3.8 9.4-22.5 22.1-66.5 27S1 66.1 1 66.1s8.8 18 31.1 30.7c0 0-5.2 58.5 46.9 81a24.4 24.4 0 0 0 10.8 1.2 2.3 2.3 0 0 0 .9-4.3c-8.2-5-25.3-17.4-26.1-32.8-1.1-20.3 16.2-25.7 16.2-25.7s15.9-5.3 23.6 8.5c0 0 4.5-16.3 24.3-16.3s21.3 15.7 21.3 15.7 7.5 19.8-26.5 46.6c0 0-2.4 5.7 7 5.2a26.9 26.9 0 0 0 14.6-5.6s31.3-23.7 51.8-74.2z"/></svg>