<svg xmlns="http://www.w3.org/2000/svg" width="796.6" height="256" viewBox="0 0 796.6 256"><path fill="#231f20" d="M178.6 146.3h33.6v10.4h-46.4V82.8h12.8zm39.8-16.6a31.2 31.2 0 0 1 3.1-14 22.5 22.5 0 0 1 8.7-9.6 24.4 24.4 0 0 1 12.8-3.4q10.7 0 17.4 6.9t7.2 18.3v2.8a31.5 31.5 0 0 1-3 14 22.3 22.3 0 0 1-8.6 9.5 24.6 24.6 0 0 1-13 3.4q-11.2 0-17.9-7.5t-6.7-19.9zm11.9 1q0 8.2 3.4 12.8a11 11 0 0 0 9.4 4.6 10.9 10.9 0 0 0 9.4-4.7q3.4-4.7 3.4-13.8t-3.6-12.6a11.6 11.6 0 0 0-18.6-.1q-3.4 4.6-3.4 13.8zm65.2 8.9l10.8-35.9H319l-21.1 61q-4.8 13.4-16.5 13.4a21.2 21.2 0 0 1-5.7-.9V168h2.3q4.5 0 6.8-1.6a10.9 10.9 0 0 0 3.6-5.5l1.7-4.5-18.6-52.7h12.8zm61.2 17.1a18.3 18.3 0 0 1-1.4-4.9 18.5 18.5 0 0 1-13.9 5.9q-8 0-13-4.6a14.6 14.6 0 0 1-5-11.3q0-8.5 6.3-13t18-4.5h7.3v-3.5a9.3 9.3 0 0 0-2.3-6.6q-2.3-2.5-7-2.5a10.5 10.5 0 0 0-6.7 2 6.3 6.3 0 0 0-2.6 5.2h-11.9a13.2 13.2 0 0 1 2.9-8.2 19.2 19.2 0 0 1 7.9-5.9 27.6 27.6 0 0 1 11.1-2.2q9.3 0 14.8 4.7t5.7 13.1v23.9q0 7.1 2 11.4v.8zm-13.1-8.6a13.5 13.5 0 0 0 6.6-1.7 11.5 11.5 0 0 0 4.7-4.6v-10h-6.4q-6.6 0-9.9 2.3a7.5 7.5 0 0 0-3.3 6.5 7 7 0 0 0 2.3 5.5 8.8 8.8 0 0 0 6 2zm48.3 8.6H380V81.5h11.9zm66.5-28.5h-14.3v28.4h-12.8V82.8h26q12.8 0 19.7 5.7t7 16.6a20.8 20.8 0 0 1-3.6 12.4 22.8 22.8 0 0 1-10 7.7L487 156v.7h-13.7zm-14.3-10.4h13.2q6.5 0 10.2-3.3a11.4 11.4 0 0 0 3.7-9q0-5.9-3.4-9.2t-10.1-3.4h-13.6zm74 39.8q-11.3 0-18.3-7.1t-7-19V130a31.8 31.8 0 0 1 3.1-14.2 23.3 23.3 0 0 1 8.6-9.7 22.7 22.7 0 0 1 12.3-3.5q10.8 0 16.7 6.9t5.9 19.5v4.8h-34.7q.5 6.6 4.4 10.4a13.2 13.2 0 0 0 9.7 3.8 16.1 16.1 0 0 0 13.3-6.6l6.4 6.1a21.4 21.4 0 0 1-8.5 7.5 26.6 26.6 0 0 1-11.9 2.6zm-1.4-45.4a10 10 0 0 0-7.9 3.4q-3 3.4-3.8 9.5h22.7v-.9q-.4-6-3.2-9a9.9 9.9 0 0 0-7.9-2.9zm61.5 30.1a5.4 5.4 0 0 0-2.6-4.8q-2.6-1.7-8.7-2.9a44.6 44.6 0 0 1-10.1-3.2q-8.9-4.3-8.9-12.5a14.1 14.1 0 0 1 5.8-11.5q5.8-4.6 14.7-4.6t15.4 4.7a14.9 14.9 0 0 1 5.9 12.2h-12a7.3 7.3 0 0 0-2.5-5.7 9.8 9.8 0 0 0-6.8-2.3 10.5 10.5 0 0 0-6.4 1.8 5.7 5.7 0 0 0-2.5 4.8 4.8 4.8 0 0 0 2.3 4.3q2.3 1.5 9.3 3.1a44 44 0 0 1 11 3.7 15.6 15.6 0 0 1 5.9 5.1 13.1 13.1 0 0 1 1.9 7.2 13.8 13.8 0 0 1-5.9 11.6q-5.9 4.4-15.5 4.4a27.4 27.4 0 0 1-11.6-2.4 19.1 19.1 0 0 1-7.9-6.5 15.3 15.3 0 0 1-2.8-8.9h11.6a8.4 8.4 0 0 0 3.2 6.5 12.4 12.4 0 0 0 7.8 2.3q4.7 0 7.1-1.8a5.5 5.5 0 0 0 2.3-4.6zm43.9 5.8a10.8 10.8 0 0 0 7.4-2.6 8.9 8.9 0 0 0 3.1-6.4h11.2a17.5 17.5 0 0 1-3.1 9.2 20.2 20.2 0 0 1-7.8 6.8 23.4 23.4 0 0 1-10.7 2.5q-11.1 0-17.6-7.2t-6.5-19.9v-1.2q0-12.1 6.5-19.4t17.6-7.3q9.4 0 15.4 5.5t6.2 14.5h-11.2a10.9 10.9 0 0 0-3.1-7.5 10 10 0 0 0-7.4-2.9 10.5 10.5 0 0 0-8.9 4.2q-3.1 4.2-3.2 12.7v1.9q0 8.6 3.1 12.9a10.5 10.5 0 0 0 9 4.2zm62.8 3.4q-5.2 6.2-14.9 6.2t-13-5q-4.4-5-4.4-14.6v-34.4h11.9v34.2q0 10.1 8.4 10.1t11.7-6.2v-38h11.9v53h-11.3zm46.9 6.1q-11.3 0-18.3-7.1t-7-19V130a31.8 31.8 0 0 1 3.1-14.2 23.3 23.3 0 0 1 8.6-9.7 22.7 22.7 0 0 1 12.3-3.5q10.8 0 16.7 6.9t5.9 19.5v4.8h-34.6q.5 6.6 4.4 10.4a13.2 13.2 0 0 0 9.7 3.8 16.1 16.1 0 0 0 13.3-6.6l6.4 6.1a21.4 21.4 0 0 1-8.5 7.4 26.6 26.6 0 0 1-12 2.7zm-1.4-45.4a10 10 0 0 0-7.9 3.4q-3 3.4-3.8 9.5h22.7v-.9q-.4-6-3.2-9a9.9 9.9 0 0 0-7.8-2.9zm-625.8 4.7a3.8 3.8 0 0 1 .9-1.4c1.2-1.1 4.1-2.9 9.9-2a15.1 15.1 0 0 0 16.5-9.9c1.9-5.3-2.4-7.2-3-7.4h-.1a15.9 15.9 0 0 1-14.6-6.4 16.6 16.6 0 0 0-14.3-6.9 21.2 21.2 0 0 0-6.3-11.5c-6.7 7.1-5.8 17.5-5.8 17.5a39.3 39.3 0 0 0-3.7 6.8c-1.8 4.5-10.8 10.6-31.9 12.9s-41.6-6-41.6-6 4.2 8.6 14.9 14.7c0 0-2.5 28 22.5 38.8a11.7 11.7 0 0 0 5.2.6 1.1 1.1 0 0 0 .4-2.1c-3.9-2.4-12.1-8.3-12.5-15.7a11.9 11.9 0 0 1 7.7-12.3s7.6-2.5 11.3 4.1c0 0 2.2-7.8 11.6-7.8s10.2 7.6 10.2 7.6 3.6 9.5-12.7 22.4c0 0-1.1 2.7 3.4 2.5a12.9 12.9 0 0 0 7-2.7s15.1-11.6 25-35.8z"/></svg>