<svg xmlns="http://www.w3.org/2000/svg" width="982.6" height="256" viewBox="0 0 982.6 256"><path fill="#fff" d="M254.9 152.9h36.5v11.3h-50.5V83.8h14zm43.2-18.1a34 34 0 0 1 3.4-15.2 24.5 24.5 0 0 1 9.4-10.4 26.5 26.5 0 0 1 13.9-3.6q11.7 0 18.9 7.5t7.9 19.9v3a34.3 34.3 0 0 1-3.3 15.2 24.2 24.2 0 0 1-9.4 10.4 26.7 26.7 0 0 1-14.1 3.7q-12.2 0-19.5-8.1t-7.3-21.6zm12.9 1.1q0 8.9 3.7 13.9a11.9 11.9 0 0 0 10.2 5 11.8 11.8 0 0 0 10.2-5.1q3.6-5.1 3.6-15T335 121a12.6 12.6 0 0 0-20.3-.1q-3.7 5-3.7 15zm70.9 9.7l11.7-39.1h13.8l-22.9 66.3q-5.3 14.5-17.9 14.5a23.1 23.1 0 0 1-6.2-1v-9.9l2.4.2q4.9 0 7.4-1.8a11.8 11.8 0 0 0 3.9-6l1.9-4.9-20.2-57.3h13.9zm66.6 18.5a19.9 19.9 0 0 1-1.5-5.4 20.1 20.1 0 0 1-15.1 6.4q-8.7 0-14.2-4.9a15.8 15.8 0 0 1-5.5-12.2q0-9.2 6.8-14.1t19.6-4.9h7.9v-3.8a10.1 10.1 0 0 0-2.5-7.2q-2.5-2.7-7.6-2.7a11.4 11.4 0 0 0-7.2 2.2 6.8 6.8 0 0 0-2.8 5.6h-13a14.4 14.4 0 0 1 3.1-8.9 20.9 20.9 0 0 1 8.5-6.5 30 30 0 0 1 12.1-2.3q10.1 0 16.1 5.1t6.2 14.3v26q0 7.8 2.2 12.4v.9zm-14.2-9.3a14.7 14.7 0 0 0 7.2-1.9 12.4 12.4 0 0 0 5.1-5v-10.8h-7q-7.2 0-10.8 2.5a8.1 8.1 0 0 0-3.6 7.1 7.6 7.6 0 0 0 2.5 5.9 9.6 9.6 0 0 0 6.6 2.2zm52.5 9.3h-12.9V82.4h12.9zm72.3-30.9h-15.6v30.9h-14V83.8h28.3q13.9 0 21.5 6.2t7.6 18.1q0 8.1-3.9 13.5a24.8 24.8 0 0 1-10.8 8.4l18 33.5v.7h-15zM543.5 122h14.3q7.1 0 11-3.6t4-9.7q0-6.5-3.7-10t-11-3.6h-14.6zm80.4 43.2q-12.3 0-19.9-7.7t-7.6-20.6v-1.6a34.5 34.5 0 0 1 3.3-15.4 25.3 25.3 0 0 1 9.3-10.6 24.7 24.7 0 0 1 13.4-3.8q11.8 0 18.2 7.5t6.4 21.2v5.2h-37.6q.6 7.1 4.8 11.3a14.3 14.3 0 0 0 10.5 4.2 17.5 17.5 0 0 0 14.5-7.2l7 6.7a23.3 23.3 0 0 1-9.2 8 28.9 28.9 0 0 1-13.1 2.8zm-1.5-49.3a10.9 10.9 0 0 0-8.6 3.7q-3.3 3.7-4.2 10.4h24.6v-1q-.4-6.5-3.5-9.8a10.8 10.8 0 0 0-8.4-3.4zm66.9 32.6a5.9 5.9 0 0 0-2.8-5.3q-2.8-1.8-9.4-3.2a48.6 48.6 0 0 1-11-3.5q-9.7-4.7-9.7-13.6a15.3 15.3 0 0 1 6.3-12.5q6.3-5 16-5t16.7 5.1a16.2 16.2 0 0 1 6.4 13.3h-13.1a8 8 0 0 0-2.8-6.2 10.6 10.6 0 0 0-7.3-2.5 11.5 11.5 0 0 0-6.9 2 6.2 6.2 0 0 0-2.7 5.3 5.2 5.2 0 0 0 2.5 4.6q2.5 1.6 10.1 3.3a47.9 47.9 0 0 1 11.9 4 16.9 16.9 0 0 1 6.4 5.6 14.2 14.2 0 0 1 2.1 7.9 15 15 0 0 1-6.4 12.6q-6.4 4.8-16.9 4.8a29.8 29.8 0 0 1-12.6-2.6 20.8 20.8 0 0 1-8.6-7 16.6 16.6 0 0 1-3.1-9.6H667a9.1 9.1 0 0 0 3.5 7.1 13.4 13.4 0 0 0 8.5 2.5q5.1 0 7.8-1.9a6 6 0 0 0 2.5-5.2zm47.6 6.4a11.7 11.7 0 0 0 8-2.8 9.6 9.6 0 0 0 3.4-7h12.2a19 19 0 0 1-3.4 10 22 22 0 0 1-8.5 7.4 25.4 25.4 0 0 1-11.6 2.7q-12.1 0-19.2-7.8t-7.1-21.6v-1.3q0-13.1 7-21t19.2-7.9q10.3 0 16.7 6t6.8 15.7h-12a11.8 11.8 0 0 0-3.4-8.3 10.9 10.9 0 0 0-8.1-3.2 11.4 11.4 0 0 0-9.7 4.6q-3.4 4.6-3.5 13.8v2.1q0 9.4 3.4 14t9.8 4.6zm68.3 3.6q-5.7 6.7-16.2 6.7t-14.2-5.5q-4.8-5.5-4.8-15.9v-37.3h13v37.1q0 11 9.1 11t12.7-6.8v-41.3h12.9v57.6h-12.2zm51 6.7q-12.3 0-19.9-7.7t-7.6-20.6v-1.6a34.5 34.5 0 0 1 3.3-15.4 25.3 25.3 0 0 1 9.3-10.6 24.7 24.7 0 0 1 13.4-3.8q11.8 0 18.2 7.5t6.4 21.2v5.2h-37.6q.6 7.1 4.8 11.3a14.3 14.3 0 0 0 10.5 4.2 17.5 17.5 0 0 0 14.5-7.2l7 6.7a23.3 23.3 0 0 1-9.2 8 28.9 28.9 0 0 1-13.1 2.8zm-1.5-49.3a10.9 10.9 0 0 0-8.6 3.7q-3.3 3.7-4.2 10.4h24.6v-1q-.4-6.5-3.5-9.8a10.8 10.8 0 0 0-8.3-3.4zm-680.3 5a4.2 4.2 0 0 1 1-1.5c1.3-1.2 4.5-3.2 10.8-2.1 9 1.4 15.8-4.6 18-10.8s-2.7-7.8-3.3-8.1h-.1a17.2 17.2 0 0 1-15.8-7 18 18 0 0 0-15.5-7.5 23 23 0 0 0-6.9-12.6c-7.3 7.7-6.3 19-6.3 19a42.7 42.7 0 0 0-4 7.4c-2 4.9-11.7 11.5-34.7 14s-45.2-6.5-45.2-6.5 4.6 9.4 16.2 16c0 0-2.7 30.5 24.4 42.2a12.7 12.7 0 0 0 5.6.6 1.2 1.2 0 0 0 .4-2.2c-4.3-2.6-13.2-9.1-13.6-17.1a13 13 0 0 1 8.4-13.4s8.3-2.8 12.3 4.4c0 0 2.3-8.5 12.6-8.5s11.1 8.2 11.1 8.2 3.9 10.3-13.8 24.3c0 0-1.2 3 3.7 2.7a14 14 0 0 0 7.6-2.9s16.4-12.3 27.1-38.6z"/></svg>