<svg xmlns="http://www.w3.org/2000/svg" id="btn-subtle-arrow" width="256" height="256" viewBox="0 0 256 256"><circle cx="32.7" cy="89.9" r="31.7"/><circle cx="89.9" cy="39.1" r="31.8"/><circle cx="166.1" cy="39.1" r="31.8"/><circle cx="223.3" cy="89.9" r="31.7"/><path d="M195.8 157.9c-11-13-20.3-24-31.5-37-5.8-6.9-13.3-13.7-22.2-16.8a25.7 25.7 0 0 0-4.2-1.1 63.9 63.9 0 0 0-9.9-.5 53.3 53.3 0 0 0-10 .6 25.7 25.7 0 0 0-4.2 1.1c-8.9 3-16.3 9.9-22.2 16.8-11 13-20.3 24-31.5 37-16.7 16.7-37.1 35.1-33.3 60.9 3.7 13 13 25.8 29.6 29.5 9.3 1.9 38.9-5.6 70.4-5.6h2.2c31.5 0 61.1 7.4 70.4 5.6 16.6-3.7 25.9-16.6 29.6-29.5 3.9-25.9-16.5-44.3-33.2-61z"/></svg>