<svg id="btn-subtle-arrow" xmlns="http://www.w3.org/2000/svg" width="256" height="256" viewBox="0 0 256 256"><title>twitter</title><path d="M80.9,231.2c95.8,0,148.3-79.4,148.3-148.3,0-2.3,0-4.5-.2-6.7a106,106,0,0,0,26-27,104,104,0,0,1-29.9,8.2A52.3,52.3,0,0,0,248,28.6a104.4,104.4,0,0,1-33.1,12.6,52.2,52.2,0,0,0-88.8,47.5A147.9,147.9,0,0,1,18.7,34.3a52.2,52.2,0,0,0,16.1,69.6,51.7,51.7,0,0,1-23.7-6.5V98A52.1,52.1,0,0,0,53,149.1a52,52,0,0,1-23.5.9,52.2,52.2,0,0,0,48.7,36.2,104.6,104.6,0,0,1-64.7,22.4A106.1,106.1,0,0,1,1,207.8a147.5,147.5,0,0,0,79.9,23.4"/></svg>