<svg xmlns="http://www.w3.org/2000/svg" id="btn-subtle-arrow" width="256" height="256" viewBox="0 0 256 256"><path fill="#ffeb3b" d="M27.4 237.3a18.5 18.5 0 0 1-16.2-27.4L111.8 28.3a18.6 18.6 0 0 1 16.5-9.6 18.1 18.1 0 0 1 15.8 8.7l100.6 181.4a20 20 0 0 1-.4 19.7 18 18 0 0 1-15.7 8.9z"/><path d="M128.4 26.6a10.3 10.3 0 0 1 8.9 4.7l100.4 181.2a11.9 11.9 0 0 1-.2 11.8 10.1 10.1 0 0 1-8.9 5H27.4a10.5 10.5 0 0 1-9.2-15.6L118.8 32.2a10.7 10.7 0 0 1 9.6-5.6m0-15.9a26.5 26.5 0 0 0-23.5 13.7L4.3 206a26.4 26.4 0 0 0 23.1 39.2h201.2c20.1 0 32.8-21.6 23.1-40.2L151.1 23.5a26 26 0 0 0-22.7-12.7z"/><path d="M123.4 175.9l-12.9-81a17.7 17.7 0 1 1 34.9 0l-12.9 81z"/><path d="M128 75.7a16.1 16.1 0 0 1 16 19l-12.7 79.7h-6.6L112 94.7a16.1 16.1 0 0 1 16-19m0-3a19.1 19.1 0 0 0-19 22.5l12.7 79.7.4 2.5h11.7l.4-2.5L147 95.1a19.1 19.1 0 0 0-19-22.5zm0 140.4a12.5 12.5 0 1 1 12.5-12.5 12.5 12.5 0 0 1-12.5 12.5z"/><path d="M128 189.6a11 11 0 1 1-11 11 11 11 0 0 1 11-11m0-3a14 14 0 1 0 14 14 14 14 0 0 0-14-14z"/></svg>