<svg xmlns="http://www.w3.org/2000/svg"><symbol id="arrow-300" viewBox="0 0 110 256"><path d="M103.4 129.4L43.2 60.2 31.3 70.5l51.2 58.9-51.2 58.8 11.9 10.4 60.2-69.2z"/></symbol><symbol id="arrow-400" viewBox="0 0 110 256"><path d="M106.4 128.2L45 57.5 29.5 71l49.8 57.2-49.8 57.3L45 198.9l61.4-70.7z"/></symbol><symbol id="checkmark" viewBox="0 0 256 256"><path d="M49.6 134.7l16.8-16.8 44.6 44.5 90.5-90.5 16.8 16.8L110.9 196l-61.3-61.3z"/></symbol><symbol id="expand-less" viewBox="0 0 256 256"><path d="M128 66.7L1 173.3l13.5 16L128 94l113.5 95.3 13.5-16L128 66.7z"/></symbol><symbol id="expand-more" viewBox="0 0 256 256"><path d="M128 189.3L255 82.7l-13.5-16L128 162 14.5 66.7 1 82.7l127 106.6z"/></symbol><symbol id="facebook" viewBox="0 0 256 256"><rect id="Blue" width="254" height="254" x="1" y="1" rx="14" ry="14"/><path id="f" fill="#fff" d="M176.3 255v-98.4h33l4.9-38.3h-38V93.8c0-11.1 3.1-18.7 19-18.7h20.3V40.9a271.6 271.6 0 0 0-29.5-1.5c-29.3 0-49.3 17.9-49.3 50.7v28.3h-33.1v38.3h33.1V255z"/></symbol><symbol id="instagram" viewBox="0 0 254 254"><path d="M127 22.9c33.9 0 37.9.1 51.3.7s19.1 2.6 23.6 4.4a39.3 39.3 0 0 1 14.6 9.5 39.3 39.3 0 0 1 9.5 14.6c1.7 4.5 3.8 11.2 4.4 23.6s.7 17.4.7 51.3-.1 37.9-.7 51.3-2.6 19.1-4.4 23.6a42.1 42.1 0 0 1-24.1 24.1c-4.5 1.7-11.2 3.8-23.6 4.4s-17.4.7-51.3.7-37.9-.1-51.3-.7-19.1-2.6-23.6-4.4a39.3 39.3 0 0 1-14.6-9.5 39.3 39.3 0 0 1-9.5-14.6c-1.7-4.5-3.8-11.2-4.4-23.6s-.7-17.4-.7-51.3.1-37.9.7-51.3 2.7-19.1 4.4-23.6a39.3 39.3 0 0 1 9.5-14.6A39.3 39.3 0 0 1 52.1 28c4.5-1.7 11.2-3.8 23.6-4.4s17.4-.7 51.3-.7M127 0C92.5 0 88.2.1 74.6.8S51.9 3.5 43.8 6.7a62.3 62.3 0 0 0-22.5 14.6A62.3 62.3 0 0 0 6.7 43.8C3.5 51.9 1.4 61.1.8 74.6S0 92.5 0 127s.1 38.8.8 52.4 2.8 22.7 5.9 30.8a62.3 62.3 0 0 0 14.6 22.5 62.3 62.3 0 0 0 22.5 14.6c8.1 3.1 17.3 5.3 30.8 5.9s17.9.8 52.4.8 38.8-.1 52.4-.8 22.7-2.8 30.8-5.9a64.9 64.9 0 0 0 37.1-37.1c3.1-8.1 5.3-17.3 5.9-30.8s.8-17.9.8-52.4-.1-38.8-.8-52.4-2.8-22.7-5.9-30.8a62.3 62.3 0 0 0-14.6-22.5 62.3 62.3 0 0 0-22.5-14.6c-8.1-3.1-17.3-5.3-30.8-5.9S161.5 0 127 0z"/><path d="M127 61.8a65.2 65.2 0 1 0 65.2 65.2A65.2 65.2 0 0 0 127 61.8zm0 107.5a42.3 42.3 0 1 1 42.3-42.3 42.3 42.3 0 0 1-42.3 42.3z"/><circle cx="194.8" cy="59.2" r="15.2"/></symbol><symbol id="nav-close" viewBox="0 0 256 256"><path fill="none" stroke="#000" stroke-miterlimit="10" stroke-width="8" d="M96 160l64-64m-64 0l64 64"/></symbol><symbol id="nav-logo-xs" viewBox="0 0 903.6 256"><path d="M232.4 146.3H266v10.4h-46.4V82.8h12.8zm39.8-16.6a31.2 31.2 0 0 1 3.1-14 22.5 22.5 0 0 1 8.7-9.6 24.4 24.4 0 0 1 12.8-3.4q10.7 0 17.4 6.9t7.2 18.3v2.8a31.5 31.5 0 0 1-3 14 22.3 22.3 0 0 1-8.6 9.5 24.6 24.6 0 0 1-13 3.4q-11.2 0-17.9-7.5t-6.7-19.9zm11.9 1q0 8.2 3.4 12.8a11 11 0 0 0 9.4 4.6 10.9 10.9 0 0 0 9.4-4.7q3.4-4.7 3.4-13.8t-3.6-12.6a11.6 11.6 0 0 0-18.6-.1q-3.4 4.6-3.4 13.8zm65.2 8.9l10.8-35.9h12.7l-21.1 61q-4.8 13.4-16.5 13.4a21.2 21.2 0 0 1-5.7-.9V168h2.3q4.5 0 6.8-1.6a10.9 10.9 0 0 0 3.6-5.5l1.7-4.5-18.6-52.7h12.8zm61.2 17.1a18.3 18.3 0 0 1-1.4-4.9 18.5 18.5 0 0 1-13.9 5.9q-8 0-13-4.6a14.6 14.6 0 0 1-5-11.3q0-8.5 6.3-13t18-4.5h7.3v-3.5a9.3 9.3 0 0 0-2.3-6.6q-2.3-2.5-7-2.5a10.5 10.5 0 0 0-6.7 2 6.3 6.3 0 0 0-2.6 5.2h-11.9a13.2 13.2 0 0 1 2.9-8.2 19.2 19.2 0 0 1 7.9-5.9 27.6 27.6 0 0 1 11.1-2.2q9.3 0 14.8 4.7t5.7 13.1v23.9q0 7.1 2 11.4v.8zm-13.1-8.6a13.5 13.5 0 0 0 6.6-1.7 11.5 11.5 0 0 0 4.7-4.6v-10h-6.4q-6.6 0-9.9 2.3a7.5 7.5 0 0 0-3.3 6.5 7 7 0 0 0 2.3 5.5 8.8 8.8 0 0 0 6 2zm48.3 8.6h-11.9V81.5h11.9zm66.5-28.5h-14.3v28.4h-12.8V82.8h26q12.8 0 19.7 5.7t7 16.6a20.8 20.8 0 0 1-3.6 12.4 22.8 22.8 0 0 1-10 7.7l16.6 30.8v.7h-13.7zm-14.3-10.4h13.2q6.5 0 10.2-3.3a11.4 11.4 0 0 0 3.7-9q0-5.9-3.4-9.2t-10.1-3.4h-13.6zm74 39.8q-11.3 0-18.3-7.1t-7-19V130a31.8 31.8 0 0 1 3.1-14.2 23.3 23.3 0 0 1 8.6-9.7 22.7 22.7 0 0 1 12.3-3.5q10.8 0 16.7 6.9t5.9 19.5v4.8h-34.7q.5 6.6 4.4 10.4a13.2 13.2 0 0 0 9.7 3.8 16.1 16.1 0 0 0 13.3-6.6l6.4 6.1a21.4 21.4 0 0 1-8.5 7.4 26.6 26.6 0 0 1-11.9 2.7zm-1.4-45.4a10 10 0 0 0-7.9 3.4q-3 3.4-3.8 9.5h22.7v-.9q-.4-6-3.2-9a9.9 9.9 0 0 0-7.8-2.9zm61.6 30.1a5.4 5.4 0 0 0-2.6-4.8q-2.6-1.7-8.7-2.9a44.6 44.6 0 0 1-10.1-3.2q-8.9-4.3-8.9-12.5a14.1 14.1 0 0 1 5.8-11.5q5.8-4.6 14.7-4.6t15.4 4.7a14.9 14.9 0 0 1 5.9 12.2h-12.1a7.3 7.3 0 0 0-2.5-5.7 9.8 9.8 0 0 0-6.8-2.3 10.5 10.5 0 0 0-6.4 1.8 5.7 5.7 0 0 0-2.5 4.8 4.8 4.8 0 0 0 2.3 4.3q2.3 1.5 9.3 3.1a44 44 0 0 1 11 3.7 15.6 15.6 0 0 1 5.9 5.1 13.1 13.1 0 0 1 1.9 7.2 13.8 13.8 0 0 1-5.9 11.6q-5.9 4.4-15.5 4.4a27.4 27.4 0 0 1-11.6-2.4 19.1 19.1 0 0 1-7.9-6.5 15.3 15.3 0 0 1-2.8-8.9h11.6a8.4 8.4 0 0 0 3.2 6.5 12.4 12.4 0 0 0 7.8 2.3q4.7 0 7.1-1.8a5.5 5.5 0 0 0 2.4-4.6zm43.8 5.9a10.8 10.8 0 0 0 7.4-2.6 8.9 8.9 0 0 0 3.1-6.4h11.2a17.5 17.5 0 0 1-3.1 9.2 20.2 20.2 0 0 1-7.8 6.8 23.4 23.4 0 0 1-10.7 2.5q-11.1 0-17.6-7.2t-6.5-19.9v-1.2q0-12.1 6.5-19.4t17.6-7.3q9.4 0 15.4 5.5t6.2 14.5h-11.2a10.9 10.9 0 0 0-3.1-7.5 10 10 0 0 0-7.4-2.9 10.5 10.5 0 0 0-8.9 4.2q-3.1 4.2-3.2 12.7v1.9q0 8.6 3.1 12.9a10.5 10.5 0 0 0 9 4.2zm62.8 3.3q-5.2 6.2-14.9 6.2t-13-5q-4.4-5-4.4-14.6v-34.4h11.9v34.2q0 10.1 8.4 10.1t11.7-6.2v-38h11.9v53H739zm47 6.1q-11.3 0-18.3-7.1t-7-19V130a31.8 31.8 0 0 1 3.1-14.2 23.3 23.3 0 0 1 8.6-9.7 22.7 22.7 0 0 1 12.3-3.5q10.8 0 16.7 6.9T807 129v4.8h-34.7q.5 6.6 4.4 10.4a13.2 13.2 0 0 0 9.7 3.8 16.1 16.1 0 0 0 13.3-6.6l6.4 6.1a21.4 21.4 0 0 1-8.5 7.4 26.6 26.6 0 0 1-11.9 2.7zm-1.4-45.4a10 10 0 0 0-7.9 3.4q-3 3.4-3.8 9.5h22.7v-.9q-.4-6-3.2-9a9.9 9.9 0 0 0-7.9-2.9zm-625.9 4.7a3.8 3.8 0 0 1 .9-1.4c1.2-1.1 4.1-2.9 9.9-2a15.1 15.1 0 0 0 16.5-9.9c1.9-5.3-2.4-7.2-3-7.4h-.1a15.9 15.9 0 0 1-14.6-6.4 16.6 16.6 0 0 0-14.3-6.9 21.2 21.2 0 0 0-6.3-11.5c-6.7 7.1-5.8 17.5-5.8 17.5a39.3 39.3 0 0 0-3.7 6.8c-1.8 4.5-10.8 10.6-31.9 12.9s-41.6-6-41.6-6 4.2 8.6 14.9 14.7c0 0-2.5 28 22.5 38.8a11.7 11.7 0 0 0 5.2.6 1.1 1.1 0 0 0 .4-2.1c-3.9-2.4-12.1-8.3-12.5-15.7a11.9 11.9 0 0 1 7.7-12.3s7.6-2.5 11.3 4.1c0 0 2.2-7.8 11.6-7.8s10.2 7.6 10.2 7.6 3.6 9.5-12.7 22.4c0 0-1.1 2.7 3.4 2.5a12.9 12.9 0 0 0 7-2.7s15.1-11.6 25-35.8z"/></symbol><symbol id="nav-logo" viewBox="0 0 982.6 256"><path d="M254.9 152.9h36.5v11.3h-50.5V83.8h14zm43.2-18.1a34 34 0 0 1 3.4-15.2 24.5 24.5 0 0 1 9.4-10.4 26.5 26.5 0 0 1 13.9-3.6q11.7 0 18.9 7.5t7.9 19.9v3a34.3 34.3 0 0 1-3.3 15.2 24.2 24.2 0 0 1-9.4 10.4 26.7 26.7 0 0 1-14.1 3.7q-12.2 0-19.5-8.1t-7.3-21.6zm12.9 1.1q0 8.9 3.7 13.9a11.9 11.9 0 0 0 10.2 5 11.8 11.8 0 0 0 10.2-5.1q3.6-5.1 3.6-15T335 121a12.6 12.6 0 0 0-20.3-.1q-3.7 5-3.7 15zm70.9 9.7l11.7-39.1h13.8l-22.9 66.3q-5.3 14.5-17.9 14.5a23.1 23.1 0 0 1-6.2-1v-9.9l2.4.2q4.9 0 7.4-1.8a11.8 11.8 0 0 0 3.9-6l1.9-4.9-20.2-57.3h13.9zm66.6 18.5a19.9 19.9 0 0 1-1.5-5.4 20.1 20.1 0 0 1-15.1 6.4q-8.7 0-14.2-4.9a15.8 15.8 0 0 1-5.5-12.2q0-9.2 6.8-14.1t19.6-4.9h7.9v-3.8a10.1 10.1 0 0 0-2.5-7.2q-2.5-2.7-7.6-2.7a11.4 11.4 0 0 0-7.2 2.2 6.8 6.8 0 0 0-2.8 5.6h-13a14.4 14.4 0 0 1 3.1-8.9 20.9 20.9 0 0 1 8.5-6.5 30 30 0 0 1 12.1-2.3q10.1 0 16.1 5.1t6.2 14.3v26q0 7.8 2.2 12.4v.9zm-14.2-9.3a14.7 14.7 0 0 0 7.2-1.9 12.4 12.4 0 0 0 5.1-5v-10.8h-7q-7.2 0-10.8 2.5a8.1 8.1 0 0 0-3.6 7.1 7.6 7.6 0 0 0 2.5 5.9 9.6 9.6 0 0 0 6.6 2.2zm52.5 9.3h-12.9V82.4h12.9zm72.3-30.9h-15.6v30.9h-14V83.8h28.3q13.9 0 21.5 6.2t7.6 18.1q0 8.1-3.9 13.5a24.8 24.8 0 0 1-10.8 8.4l18 33.5v.7h-15zM543.5 122h14.3q7.1 0 11-3.6t4-9.7q0-6.5-3.7-10t-11-3.6h-14.6zm80.4 43.2q-12.3 0-19.9-7.7t-7.6-20.6v-1.6a34.5 34.5 0 0 1 3.3-15.4 25.3 25.3 0 0 1 9.3-10.6 24.7 24.7 0 0 1 13.4-3.8q11.8 0 18.2 7.5t6.4 21.2v5.2h-37.6q.6 7.1 4.8 11.3a14.3 14.3 0 0 0 10.5 4.2 17.5 17.5 0 0 0 14.5-7.2l7 6.7a23.3 23.3 0 0 1-9.2 8 28.9 28.9 0 0 1-13.1 2.8zm-1.5-49.3a10.9 10.9 0 0 0-8.6 3.7q-3.3 3.7-4.2 10.4h24.6v-1q-.4-6.5-3.5-9.8a10.8 10.8 0 0 0-8.4-3.4zm66.9 32.6a5.9 5.9 0 0 0-2.8-5.3q-2.8-1.8-9.4-3.2a48.6 48.6 0 0 1-11-3.5q-9.7-4.7-9.7-13.6a15.3 15.3 0 0 1 6.3-12.5q6.3-5 16-5t16.7 5.1a16.2 16.2 0 0 1 6.4 13.3h-13.1a8 8 0 0 0-2.8-6.2 10.6 10.6 0 0 0-7.3-2.5 11.5 11.5 0 0 0-6.9 2 6.2 6.2 0 0 0-2.7 5.3 5.2 5.2 0 0 0 2.5 4.6q2.5 1.6 10.1 3.3a47.9 47.9 0 0 1 11.9 4 16.9 16.9 0 0 1 6.4 5.6 14.2 14.2 0 0 1 2.1 7.9 15 15 0 0 1-6.4 12.6q-6.4 4.8-16.9 4.8a29.8 29.8 0 0 1-12.6-2.6 20.8 20.8 0 0 1-8.6-7 16.6 16.6 0 0 1-3.1-9.6H667a9.1 9.1 0 0 0 3.5 7.1 13.4 13.4 0 0 0 8.5 2.5q5.1 0 7.8-1.9a6 6 0 0 0 2.5-5.2zm47.6 6.4a11.7 11.7 0 0 0 8-2.8 9.6 9.6 0 0 0 3.4-7h12.2a19 19 0 0 1-3.4 10 22 22 0 0 1-8.5 7.4 25.4 25.4 0 0 1-11.6 2.7q-12.1 0-19.2-7.8t-7.1-21.6v-1.3q0-13.1 7-21t19.2-7.9q10.3 0 16.7 6t6.8 15.7h-12a11.8 11.8 0 0 0-3.4-8.3 10.9 10.9 0 0 0-8.1-3.2 11.4 11.4 0 0 0-9.7 4.6q-3.4 4.6-3.5 13.8v2.1q0 9.4 3.4 14t9.8 4.6zm68.3 3.6q-5.7 6.7-16.2 6.7t-14.2-5.5q-4.8-5.5-4.8-15.9v-37.3h13v37.1q0 11 9.1 11t12.7-6.8v-41.3h12.9v57.6h-12.2zm51 6.7q-12.3 0-19.9-7.7t-7.6-20.6v-1.6a34.5 34.5 0 0 1 3.3-15.4 25.3 25.3 0 0 1 9.3-10.6 24.7 24.7 0 0 1 13.4-3.8q11.8 0 18.2 7.5t6.4 21.2v5.2h-37.6q.6 7.1 4.8 11.3a14.3 14.3 0 0 0 10.5 4.2 17.5 17.5 0 0 0 14.5-7.2l7 6.7a23.3 23.3 0 0 1-9.2 8 28.9 28.9 0 0 1-13.1 2.8zm-1.5-49.3a10.9 10.9 0 0 0-8.6 3.7q-3.3 3.7-4.2 10.4h24.6v-1q-.4-6.5-3.5-9.8a10.8 10.8 0 0 0-8.3-3.4zm-680.3 5a4.2 4.2 0 0 1 1-1.5c1.3-1.2 4.5-3.2 10.8-2.1 9 1.4 15.8-4.6 18-10.8s-2.7-7.8-3.3-8.1h-.1a17.2 17.2 0 0 1-15.8-7 18 18 0 0 0-15.5-7.5 23 23 0 0 0-6.9-12.6c-7.3 7.7-6.3 19-6.3 19a42.7 42.7 0 0 0-4 7.4c-2 4.9-11.7 11.5-34.7 14s-45.2-6.5-45.2-6.5 4.6 9.4 16.2 16c0 0-2.7 30.5 24.4 42.2a12.7 12.7 0 0 0 5.6.6 1.2 1.2 0 0 0 .4-2.2c-4.3-2.6-13.2-9.1-13.6-17.1a13 13 0 0 1 8.4-13.4s8.3-2.8 12.3 4.4c0 0 2.3-8.5 12.6-8.5s11.1 8.2 11.1 8.2 3.9 10.3-13.8 24.3c0 0-1.2 3 3.7 2.7a14 14 0 0 0 7.6-2.9s16.4-12.3 27.1-38.6z"/></symbol><symbol id="nav-open" viewBox="0 0 256 256"><path fill="none" stroke="#000" stroke-miterlimit="10" stroke-width="8" d="M82.8 109.4h90.5m-90.5 37.2h90.5"/></symbol><symbol id="nav-search" viewBox="0 0 229.3 256"><path d="M160.1 169.7l-26.6-26.6a37.1 37.1 0 1 0-6.1 5.2l27 27zm-82.9-52a29.2 29.2 0 1 1 29.2 29.3 29.2 29.2 0 0 1-29.2-29.2z"/></symbol><symbol id="select-arrow" viewBox="0 0 256 256"><path fill="#919191" d="M220.6 56.3L128 148.9 35.4 56.3 10 81.7l118 118 118-118-25.4-25.4z"/></symbol><symbol id="twitter" viewBox="0 0 256 256"><path d="M80.9 231.2c95.8 0 148.3-79.4 148.3-148.3 0-2.3 0-4.5-.2-6.7a106 106 0 0 0 26-27 104 104 0 0 1-29.9 8.2A52.3 52.3 0 0 0 248 28.6a104.4 104.4 0 0 1-33.1 12.6 52.2 52.2 0 0 0-88.8 47.5A147.9 147.9 0 0 1 18.7 34.3a52.2 52.2 0 0 0 16.1 69.6 51.7 51.7 0 0 1-23.7-6.5v.6A52.1 52.1 0 0 0 53 149.1a52 52 0 0 1-23.5.9 52.2 52.2 0 0 0 48.7 36.2 104.6 104.6 0 0 1-64.7 22.4 106.1 106.1 0 0 1-12.5-.8 147.5 147.5 0 0 0 79.9 23.4"/></symbol><symbol id="warning-arrow" viewBox="0 0 24 13"><path fill="#ffecb3" stroke="#ffc107" stroke-miterlimit="10" d="M1 12.4l11-11 11 11"/><path fill="#ffecb3" d="M.6 12h22.7v1H.6z"/></symbol><symbol id="warning" viewBox="0 0 256 256"><path d="M251.7 205L151.1 23.5C141 6.4 115 6.4 104.9 24.5L4.3 206a26.4 26.4 0 0 0 23.1 39.2h201.2c20.1 0 32.8-21.6 23.1-40.2zM128 210.6a11 11 0 1 1 11-11 11 11 0 0 1-11 11zm16-114.9l-12.7 79.7h-6.6L112 95.7a16.2 16.2 0 1 1 32 0z"/></symbol></svg>