<svg xmlns="http://www.w3.org/2000/svg"><symbol id="arrow-300" viewBox="0 0 110 256"><path d="M103.4 129.4L43.2 60.2 31.3 70.5l51.2 58.9-51.2 58.8 11.9 10.4 60.2-69.2z"/></symbol><symbol id="arrow-400" viewBox="0 0 110 256"><path d="M106.4 128.2L45 57.5 29.5 71l49.8 57.2-49.8 57.3L45 198.9l61.4-70.7z"/></symbol><symbol id="close" viewBox="0 0 256 256"><path d="M227.8 207.8L148 128l79.8-79.8-20-20L128 108 48.2 28.2l-20 20L108 128l-79.8 79.8 20 20L128 148l79.8 79.8 20-20z"/></symbol><symbol id="expand-less-1" viewBox="0 0 256 256"><path d="M128 23.9c33.9 0 37.9.1 51.3.7s19.1 2.6 23.6 4.4a39.3 39.3 0 0 1 14.6 9.5 39.3 39.3 0 0 1 9.5 14.6c1.7 4.5 3.8 11.2 4.4 23.6s.7 17.4.7 51.3-.1 37.9-.7 51.3-2.6 19.1-4.4 23.6a42.1 42.1 0 0 1-24.1 24.1c-4.5 1.7-11.2 3.8-23.6 4.4s-17.4.7-51.3.7-37.9-.1-51.3-.7-19.1-2.6-23.6-4.4a39.3 39.3 0 0 1-14.6-9.5 39.3 39.3 0 0 1-9.5-14.6c-1.7-4.5-3.8-11.2-4.4-23.6s-.7-17.4-.7-51.3.1-37.9.7-51.3 2.7-19.1 4.4-23.6a39.3 39.3 0 0 1 9.5-14.6A39.3 39.3 0 0 1 53.1 29c4.5-1.7 11.2-3.8 23.6-4.4s17.4-.7 51.3-.7M128 1c-34.5 0-38.8.1-52.4.8S52.9 4.5 44.8 7.7a62.3 62.3 0 0 0-22.5 14.6A62.3 62.3 0 0 0 7.7 44.8c-3.2 8.1-5.3 17.3-5.9 30.8S1 93.5 1 128s.1 38.8.8 52.4 2.8 22.7 5.9 30.8a62.3 62.3 0 0 0 14.6 22.5 62.3 62.3 0 0 0 22.5 14.6c8.1 3.1 17.3 5.3 30.8 5.9s17.9.8 52.4.8 38.8-.1 52.4-.8 22.7-2.8 30.8-5.9a64.9 64.9 0 0 0 37.1-37.1c3.1-8.1 5.3-17.3 5.9-30.8s.8-17.9.8-52.4-.1-38.8-.8-52.4-2.8-22.7-5.9-30.8a62.3 62.3 0 0 0-14.6-22.5 62.3 62.3 0 0 0-22.5-14.6c-8.1-3.1-17.3-5.3-30.8-5.9S162.5 1 128 1z"/><path d="M128 62.8a65.2 65.2 0 1 0 65.2 65.2A65.2 65.2 0 0 0 128 62.8zm0 107.5a42.3 42.3 0 1 1 42.3-42.3 42.3 42.3 0 0 1-42.3 42.3z"/><circle cx="195.8" cy="60.2" r="15.2"/></symbol><symbol id="expand-less" viewBox="0 0 256 256"><path d="M128 61.9L1 172.3l19 21.8 108-93.8 108 93.8 19-21.8L128 61.9z"/></symbol><symbol id="expand-more" viewBox="0 0 256 256"><path d="M128 194.1L255 83.7l-19-21.8-108 93.8L20 61.9 1 83.7l127 110.4z"/></symbol><symbol id="facebook" viewBox="0 0 256 256"><rect width="254" height="254" x="1" y="1" rx="14" ry="14"/><path fill="#fff" d="M176.3 255v-98.4h33l4.9-38.3h-38V93.8c0-11.1 3.1-18.7 19-18.7h20.3V40.9a271.6 271.6 0 0 0-29.5-1.5c-29.3 0-49.3 17.9-49.3 50.7v28.3h-33.1v38.3h33.1V255z"/></symbol><symbol id="instagram" viewBox="0 0 254 254"><path d="M127 22.9c33.9 0 37.9.1 51.3.7s19.1 2.6 23.6 4.4a39.3 39.3 0 0 1 14.6 9.5 39.3 39.3 0 0 1 9.5 14.6c1.7 4.5 3.8 11.2 4.4 23.6s.7 17.4.7 51.3-.1 37.9-.7 51.3-2.6 19.1-4.4 23.6a42.1 42.1 0 0 1-24.1 24.1c-4.5 1.7-11.2 3.8-23.6 4.4s-17.4.7-51.3.7-37.9-.1-51.3-.7-19.1-2.6-23.6-4.4a39.3 39.3 0 0 1-14.6-9.5 39.3 39.3 0 0 1-9.5-14.6c-1.7-4.5-3.8-11.2-4.4-23.6s-.7-17.4-.7-51.3.1-37.9.7-51.3 2.7-19.1 4.4-23.6a39.3 39.3 0 0 1 9.5-14.6A39.3 39.3 0 0 1 52.1 28c4.5-1.7 11.2-3.8 23.6-4.4s17.4-.7 51.3-.7M127 0C92.5 0 88.2.1 74.6.8S51.9 3.5 43.8 6.7a62.3 62.3 0 0 0-22.5 14.6A62.3 62.3 0 0 0 6.7 43.8C3.5 51.9 1.4 61.1.8 74.6S0 92.5 0 127s.1 38.8.8 52.4 2.8 22.7 5.9 30.8a62.3 62.3 0 0 0 14.6 22.5 62.3 62.3 0 0 0 22.5 14.6c8.1 3.1 17.3 5.3 30.8 5.9s17.9.8 52.4.8 38.8-.1 52.4-.8 22.7-2.8 30.8-5.9a64.9 64.9 0 0 0 37.1-37.1c3.1-8.1 5.3-17.3 5.9-30.8s.8-17.9.8-52.4-.1-38.8-.8-52.4-2.8-22.7-5.9-30.8a62.3 62.3 0 0 0-14.6-22.5 62.3 62.3 0 0 0-22.5-14.6c-8.1-3.1-17.3-5.3-30.8-5.9S161.5 0 127 0z"/><path d="M127 61.8a65.2 65.2 0 1 0 65.2 65.2A65.2 65.2 0 0 0 127 61.8zm0 107.5a42.3 42.3 0 1 1 42.3-42.3 42.3 42.3 0 0 1-42.3 42.3z"/><circle cx="194.8" cy="59.2" r="15.2"/></symbol><symbol id="more" viewBox="0 0 256 256"><path d="M255 113.9H142.1V1h-28.2v112.9H1v28.2h112.9V255h28.2V142.1H255v-28.2z"/></symbol><symbol id="nav-close" viewBox="0 0 256 256"><path d="M96.2 96.2l63.6 63.6M92.664 99.716l7.071-7.071 63.64 63.64-7.071 7.07zM159.8 96.2l-63.6 63.6"/><path d="M92.664 156.284l63.64-63.64 7.07 7.072-63.639 63.64z"/></symbol><symbol id="nav-open" viewBox="0 0 256 256"><path stroke="#000" stroke-miterlimit="10" stroke-width="10" d="M83 109.4h90m-90 37.2h90"/></symbol><symbol id="search" viewBox="0 0 256 256"><path stroke="#000" stroke-miterlimit="10" stroke-width="2" d="M173 167.7l-26.6-26.6a35.7 35.7 0 1 0-5.3 5.3l26.6 26.6zm-54.3-20.8a28.2 28.2 0 1 1 28.2-28.2 28.2 28.2 0 0 1-28.2 28.1z"/></symbol><symbol id="twitter" viewBox="0 0 256 256"><path d="M80.9 231.2c95.8 0 148.3-79.4 148.3-148.3 0-2.3 0-4.5-.2-6.7a106 106 0 0 0 26-27 104 104 0 0 1-29.9 8.2A52.3 52.3 0 0 0 248 28.6a104.4 104.4 0 0 1-33.1 12.6 52.2 52.2 0 0 0-88.8 47.5A147.9 147.9 0 0 1 18.7 34.3a52.2 52.2 0 0 0 16.1 69.6 51.7 51.7 0 0 1-23.7-6.5v.6A52.1 52.1 0 0 0 53 149.1a52 52 0 0 1-23.5.9 52.2 52.2 0 0 0 48.7 36.2 104.6 104.6 0 0 1-64.7 22.4 106.1 106.1 0 0 1-12.5-.8 147.5 147.5 0 0 0 79.9 23.4"/></symbol></svg>