<svg xmlns="http://www.w3.org/2000/svg"><symbol id="arrow-300" viewBox="0 0 110 256"><path d="M103.4 129.4L43.2 60.2 31.3 70.5l51.2 58.9-51.2 58.8 11.9 10.4 60.2-69.2z"/></symbol><symbol id="arrow-400" viewBox="0 0 110 256"><path d="M106.4 128.2L45 57.5 29.5 71l49.8 57.2-49.8 57.3L45 198.9l61.4-70.7z"/></symbol><symbol id="search" viewBox="0 0 256 256"><path d="M255 239.9l-75-75A100.7 100.7 0 0 0 101.7 1a100.7 100.7 0 0 0-71.2 171.9A100.7 100.7 0 0 0 165 180l75 75zm-153.3-58.7a79.5 79.5 0 1 1 79.5-79.5 79.5 79.5 0 0 1-79.5 79.5z"/></symbol></svg>