<svg xmlns="http://www.w3.org/2000/svg"><symbol id="application-approved" viewBox="0 0 256 256"><path d="M216.9 26.4h-53.1a37.9 37.9 0 0 0-71.6 0H39.1a25.5 25.5 0 0 0-25.4 25.4v177.8A25.5 25.5 0 0 0 39.1 255h177.8a25.5 25.5 0 0 0 25.4-25.4V51.8a25.5 25.5 0 0 0-25.4-25.4zm-88.9 0a12.7 12.7 0 1 1-12.7 12.7A12.7 12.7 0 0 1 128 26.4zm-25.4 177.8l-50.8-50.8 17.9-17.9 32.9 32.8 83.7-83.7 17.9 18z"/></symbol><symbol id="application" viewBox="0 0 256 256"><path d="M216.9 26.4h-53.1a37.9 37.9 0 0 0-71.6 0H39.1a25.5 25.5 0 0 0-25.4 25.4v177.8A25.5 25.5 0 0 0 39.1 255h177.8a25.5 25.5 0 0 0 25.4-25.4V51.8a25.5 25.5 0 0 0-25.4-25.4zm-88.9 0a12.7 12.7 0 1 1-12.7 12.7A12.7 12.7 0 0 1 128 26.4zm25.4 177.8H64.5v-25.4h88.9zm38.1-50.8h-127V128h127zm0-50.8h-127V77.2h127z"/></symbol><symbol id="arrow-light" viewBox="0 0 110 256"><path d="M103.4 129.4L43.2 60.2 31.3 70.5l51.2 58.9-51.2 58.8 11.9 10.4 60.2-69.2z"/></symbol><symbol id="arrow-ultralight" viewBox="0 0 112 256"><path d="M110.6 128L12 1 1.4 9.2 93.6 128 1.4 246.8 12 255l98.6-127z"/></symbol><symbol id="arrow" viewBox="0 0 128 256"><path d="M115.4 128.2L54 57.5 38.5 71l49.8 57.2-49.8 57.3L54 198.9l61.4-70.7z"/></symbol><symbol id="checkmark" viewBox="0 0 256 256"><path d="M49.6 134.7l16.8-16.8 44.6 44.5 90.5-90.5 16.8 16.8L110.9 196l-61.3-61.3z"/></symbol><symbol id="facebook" viewBox="0 0 256 256"><rect width="254" height="254" x="1" y="1" rx="14" ry="14"/><path fill="#fff" d="M176.3 255v-98.4h33l4.9-38.3h-38V93.8c0-11.1 3.1-18.7 19-18.7h20.3V40.9a271.6 271.6 0 0 0-29.5-1.5c-29.3 0-49.3 17.9-49.3 50.7v28.3h-33.1v38.3h33.1V255z"/></symbol><symbol id="faq" viewBox="0 0 256 256"><path d="M128 1a127 127 0 1 0 127 127A127 127 0 0 0 128 1zm12.7 215.9h-25.4v-25.4h25.4zm26.3-98.4l-11.4 11.7c-9.1 9.3-14.9 16.9-14.9 35.9h-25.4v-6.3a51.1 51.1 0 0 1 14.9-35.9l15.7-16a24.8 24.8 0 0 0 7.5-17.9 25.4 25.4 0 1 0-50.8 0H77.2a50.8 50.8 0 0 1 101.6 0 40.4 40.4 0 0 1-11.8 28.5z"/></symbol><symbol id="filter" viewBox="0 0 256 256"><path d="M1 31.6h32.1v32.08H1zm69.5 8H255v16.04H70.5zM1 112h32.1v32.08H1zm69.5 8H255v16.04H70.5zM1 192.3h32.1v32.08H1zm69.5 8.1H255v16.04H70.5z"/></symbol><symbol id="instagram" viewBox="0 0 254 254"><path d="M127 22.9c33.9 0 37.9.1 51.3.7s19.1 2.6 23.6 4.4a39.3 39.3 0 0 1 14.6 9.5 39.3 39.3 0 0 1 9.5 14.6c1.7 4.5 3.8 11.2 4.4 23.6s.7 17.4.7 51.3-.1 37.9-.7 51.3-2.6 19.1-4.4 23.6a42.1 42.1 0 0 1-24.1 24.1c-4.5 1.7-11.2 3.8-23.6 4.4s-17.4.7-51.3.7-37.9-.1-51.3-.7-19.1-2.6-23.6-4.4a39.3 39.3 0 0 1-14.6-9.5 39.3 39.3 0 0 1-9.5-14.6c-1.7-4.5-3.8-11.2-4.4-23.6s-.7-17.4-.7-51.3.1-37.9.7-51.3 2.7-19.1 4.4-23.6a39.3 39.3 0 0 1 9.5-14.6A39.3 39.3 0 0 1 52.1 28c4.5-1.7 11.2-3.8 23.6-4.4s17.4-.7 51.3-.7M127 0C92.5 0 88.2.1 74.6.8S51.9 3.5 43.8 6.7a62.3 62.3 0 0 0-22.5 14.6A62.3 62.3 0 0 0 6.7 43.8C3.5 51.9 1.4 61.1.8 74.6S0 92.5 0 127s.1 38.8.8 52.4 2.8 22.7 5.9 30.8a62.3 62.3 0 0 0 14.6 22.5 62.3 62.3 0 0 0 22.5 14.6c8.1 3.1 17.3 5.3 30.8 5.9s17.9.8 52.4.8 38.8-.1 52.4-.8 22.7-2.8 30.8-5.9a64.9 64.9 0 0 0 37.1-37.1c3.1-8.1 5.3-17.3 5.9-30.8s.8-17.9.8-52.4-.1-38.8-.8-52.4-2.8-22.7-5.9-30.8a62.3 62.3 0 0 0-14.6-22.5 62.3 62.3 0 0 0-22.5-14.6c-8.1-3.1-17.3-5.3-30.8-5.9S161.5 0 127 0z"/><path d="M127 61.8a65.2 65.2 0 1 0 65.2 65.2A65.2 65.2 0 0 0 127 61.8zm0 107.5a42.3 42.3 0 1 1 42.3-42.3 42.3 42.3 0 0 1-42.3 42.3z"/><circle cx="194.8" cy="59.2" r="15.2"/></symbol><symbol id="logo" viewBox="0 0 256 256"><path fill="#ffecb3" d="M218.3 143.7H241v1h-22.7z"/><path d="M196.9 96.1a8 8 0 0 1 1.9-2.8c2.5-2.4 8.6-6.1 20.7-4.1 17.2 2.8 30.3-8.8 34.5-20.7s-5.1-15-6.3-15.5h-.3A33.1 33.1 0 0 1 217 39.6c-12.4-16.5-29.8-14.5-29.8-14.5C184.9 10.4 174 1 174 1c-14 14.8-12 36.4-12 36.4a82 82 0 0 0-7.8 14.2c-3.8 9.4-22.5 22.1-66.5 27S1 66.1 1 66.1s8.8 18 31.1 30.7c0 0-5.2 58.5 46.9 81a24.4 24.4 0 0 0 10.8 1.2 2.3 2.3 0 0 0 .9-4.3c-8.2-5-25.3-17.4-26.1-32.8-1.1-20.3 16.2-25.7 16.2-25.7s15.9-5.3 23.6 8.5c0 0 4.5-16.3 24.3-16.3s21.3 15.7 21.3 15.7 7.5 19.8-26.5 46.6c0 0-2.4 5.7 7 5.2a26.9 26.9 0 0 0 14.6-5.6s31.3-23.7 51.8-74.2z"/></symbol><symbol id="more" viewBox="0 0 256 256"><path d="M255 112.1H143.9V1h-31.8v111.1H1v31.8h111.1V255h31.8V143.9H255v-31.8z"/></symbol><symbol id="nav-search" viewBox="0 0 229.3 256"><path d="M160.1 169.7l-26.6-26.6a37.1 37.1 0 1 0-6.1 5.2l27 27zm-82.9-52a29.2 29.2 0 1 1 29.2 29.3 29.2 29.2 0 0 1-29.2-29.2z"/></symbol><symbol id="newsletter" viewBox="0 0 256 256"><path d="M229.6 26.4H26.4A25.4 25.4 0 0 0 1.1 51.8v152.4a25.5 25.5 0 0 0 25.4 25.4h203.1a25.5 25.5 0 0 0 25.4-25.4V51.8a25.5 25.5 0 0 0-25.4-25.4zm0 50.8L128 140.7 26.4 77.2V51.8L128 115.3l101.6-63.5z"/><path fill="none" d="M0 0h256v256H0z"/></symbol><symbol id="pet" viewBox="0 0 256 256"><circle cx="32.8" cy="89.9" r="31.8"/><circle cx="89.9" cy="39.1" r="31.8"/><circle cx="166.1" cy="39.1" r="31.8"/><circle cx="223.3" cy="89.9" r="31.8"/><path d="M195.8 157.9c-11-13-20.3-24-31.5-37-5.8-6.9-13.3-13.7-22.2-16.8a25.7 25.7 0 0 0-4.2-1.1 63.9 63.9 0 0 0-9.9-.5 53.3 53.3 0 0 0-10 .6 25.7 25.7 0 0 0-4.2 1.1c-8.9 3-16.3 9.9-22.2 16.8-11 13-20.3 24-31.5 37-16.7 16.7-37.1 35.1-33.3 60.9 3.7 13 13 25.8 29.6 29.5 9.3 1.9 38.9-5.6 70.4-5.6h2.2c31.5 0 61.1 7.4 70.4 5.6 16.6-3.7 25.9-16.6 29.6-29.5 3.9-25.9-16.5-44.3-33.2-61z"/></symbol><symbol id="select-arrow" viewBox="0 0 256 256"><path d="M128 184.1v-.1L255 73.7l-24.1-27.8L128 135.4 25.1 45.9 1 73.7 128 184v.1z"/></symbol><symbol id="twitter" viewBox="0 0 256 256"><path d="M80.9 231.2c95.8 0 148.3-79.4 148.3-148.3 0-2.3 0-4.5-.2-6.7a106 106 0 0 0 26-27 104 104 0 0 1-29.9 8.2A52.3 52.3 0 0 0 248 28.6a104.4 104.4 0 0 1-33.1 12.6 52.2 52.2 0 0 0-88.8 47.5A147.9 147.9 0 0 1 18.7 34.3a52.2 52.2 0 0 0 16.1 69.6 51.7 51.7 0 0 1-23.7-6.5v.6A52.1 52.1 0 0 0 53 149.1a52 52 0 0 1-23.5.9 52.2 52.2 0 0 0 48.7 36.2 104.6 104.6 0 0 1-64.7 22.4 106.1 106.1 0 0 1-12.5-.8 147.5 147.5 0 0 0 79.9 23.4"/></symbol><symbol id="warning-arrow" viewBox="0 0 24 13"><path fill="#ffecb3" stroke="#ffc107" stroke-miterlimit="10" d="M1 12.4l11-11 11 11"/></symbol><symbol id="warning" viewBox="0 0 256 256"><path d="M128.4 26.6a10.3 10.3 0 0 1 8.9 4.7l100.4 181.2a11.9 11.9 0 0 1-.2 11.8 10.1 10.1 0 0 1-8.9 5H27.4a10.5 10.5 0 0 1-9.2-15.6L118.8 32.2a10.7 10.7 0 0 1 9.6-5.6m0-15.9a26.5 26.5 0 0 0-23.5 13.7L4.3 206a26.4 26.4 0 0 0 23.1 39.2h201.2c20.1 0 32.8-21.6 23.1-40.2L151.1 23.5a26 26 0 0 0-22.7-12.7z"/><path d="M123.4 175.9l-12.9-81a17.7 17.7 0 1 1 34.9 0l-12.9 81z"/><path d="M128 75.7a16.1 16.1 0 0 1 16 19l-12.7 79.7h-6.6L112 94.7a16.1 16.1 0 0 1 16-19m0-3a19.1 19.1 0 0 0-19 22.5l12.7 79.7.4 2.5h11.7l.4-2.5L147 95.1a19.1 19.1 0 0 0-19-22.5zm0 140.4a12.5 12.5 0 1 1 12.5-12.5 12.5 12.5 0 0 1-12.5 12.5z"/><path d="M128 189.6a11 11 0 1 1-11 11 11 11 0 0 1 11-11m0-3a14 14 0 1 0 14 14 14 14 0 0 0-14-14z"/></symbol></svg>