<svg id="Layer_1" data-name="Layer 1" xmlns="http://www.w3.org/2000/svg" width="256" height="256" viewBox="0 0 256 256"><title>logo</title><path d="M196.3,134a7.9,7.9,0,0,1,1.9-2.8c2.5-2.3,8.5-6,20.5-4.1,17.1,2.7,30-8.7,34.2-20.6s-5-14.9-6.3-15.4h-.3a32.8,32.8,0,0,1-30.1-13.2C204,61.5,186.8,63.5,186.8,63.5c-2.3-14.6-13.1-23.9-13.1-23.9-13.9,14.7-12,36.2-12,36.2A81.3,81.3,0,0,0,154,89.9c-3.7,9.3-22.3,21.9-66,26.7S2,104.2,2,104.2s8.7,17.9,30.9,30.5c0,0-5.2,58,46.6,80.3a24.2,24.2,0,0,0,10.7,1.2,2.3,2.3,0,0,0,.8-4.2c-8.1-5-25.1-17.3-25.9-32.5-1.1-20.1,16-25.5,16-25.5s15.8-5.3,23.4,8.4c0,0,4.5-16.1,24.1-16.2s21.2,15.6,21.2,15.6,7.4,19.6-26.3,46.3c0,0-2.4,5.6,7,5.1a26.7,26.7,0,0,0,14.5-5.5S176,184.1,196.3,134Z" fill="#3f51b5"/></svg>